:SAMPLES-PER-SECOND 30
:FRAME-RANGE 1-1086
:FULLY-SPECIFIED
:DEGREES
577
root  58.7032 37.1612 83.7285 -175.577 62.0786 174.622
RightUpLeg  9.91057 11.3117 1.1497
RightLeg  27.7139 21.28 11.5077
RightFoot  -8.73199 0.13076 -8.30503
RightToes  1.21801e-010 1.2921e-014 -6.02303e-014
Spine  -5.13478 6.71311 6.51498
Spine1  8.86812 10.1933 -13.9984
HEad  9.82566 22.473 -11.9195
LeftShoulder1  0.248285 2.45814 -23.2981
LeftArm  -1.66703 8.9529 -48.5306
LeftForeArm  31.2178 2.12531 -13.1903
LeftHand  -0.0253866 5.69923 1.50134
RightShoulder  2.48201 7.28432 16.9048
RightArm  -14.5694 27.4222 65.976
RightForeArm  54.4629 0.907527 6.86908
RightHand  0.381936 -7.77548 -19.2149
LeftUpLeg  -34.5789 -10.0345 -7.1665
LeftLeg  12.1841 14.7666 4.69913
LeftFoot  -0.594749 -0.0101366 0.146003
LeftToes  3.79492e-011 -8.60219e-011 1.56273e-011
578
root  60.0964 37.1972 83.0173 -176.11 62.7151 173.282
RightUpLeg  6.031 9.52067 -1.85854
RightLeg  36.4871 25.3074 18.5827
RightFoot  -4.14609 -0.331808 4.82441
RightToes  1.21801e-010 1.2921e-014 -6.02303e-014
Spine  -4.64592 6.3142 5.26767
Spine1  8.02152 10.0261 -15.5227
HEad  8.75828 23.7645 -13.1171
LeftShoulder1  0.433188 1.8775 -24.3672
LeftArm  -1.23285 6.73183 -46.6087
LeftForeArm  29.291 3.70623 -13.3978
LeftHand  -0.0232261 5.91733 1.58597
RightShoulder  2.47096 7.38505 16.5516
RightArm  -16.7384 26.6016 68.2046
RightForeArm  55.6104 -0.410231 5.32081
RightHand  0.418685 -7.96612 -19.4324
LeftUpLeg  -35.0492 -9.26178 -7.90648
LeftLeg  16.3195 14.0977 5.09668
LeftFoot  -0.746006 -0.0215609 0.281186
LeftToes  3.79492e-011 -8.60219e-011 1.56273e-011
579
root  61.343 37.165 82.3021 -176.723 62.8027 172.65
RightUpLeg  1.21271 9.19592 -3.98091
RightLeg  45.9727 24.0727 24.1422
RightFoot  0.567687 -2.47643 23.4725
RightToes  1.21801e-010 1.2921e-014 -6.02303e-014
Spine  -4.12382 6.03988 4.34037
Spine1  8.34843 9.81549 -16.1086
HEad  8.999 25.2652 -14.8194
LeftShoulder1  0.575717 1.4683 -25.4115
LeftArm  -1.86884 2.36393 -46.5183
LeftForeArm  29.0095 7.74148 -13.3201
LeftHand  -0.019258 6.25406 1.71597
RightShoulder  2.47284 7.41504 16.5003
RightArm  -17.9896 25.1195 68.4828
RightForeArm  56.0055 -1.44471 4.67955
RightHand  0.427431 -8.02608 -19.3809
LeftUpLeg  -34.7395 -8.77284 -8.80407
LeftLeg  20.3262 13.1329 5.69563
LeftFoot  -1.98682 -0.0523284 0.786318
LeftToes  3.79492e-011 -8.60219e-011 1.56273e-011
580
root  62.5949 37.2499 81.4635 -177.724 63.0535 172.225
RightUpLeg  -3.54066 8.32362 -6.19215
RightLeg  53.8871 18.6511 24.9983
RightFoot  0.600179 -2.65617 25.0596
RightToes  1.21801e-010 1.2921e-014 -6.02303e-014
Spine  -4.05914 5.8384 3.48798
Spine1  9.13343 9.54119 -15.8394
HEad  11.2001 27.3432 -15.4201
LeftShoulder1  0.59751 1.41371 -25.6697
LeftArm  -3.69928 -1.66172 -48.2263
LeftForeArm  31.6272 7.90385 -13.0952
LeftHand  -0.0162444 7.03423 1.4277
RightShoulder  2.48832 7.21596 17.1356
RightArm  -17.9356 23.2892 67.5038
RightForeArm  56.4629 -3.24483 4.87292
RightHand  0.429116 -8.04976 -19.2904
LeftUpLeg  -32.7554 -8.59748 -9.87398
LeftLeg  22.6566 12.8506 6.19407
LeftFoot  -3.64272 -0.202854 3.34095
LeftToes  3.79492e-011 -8.60219e-011 1.56273e-011
581
root  63.8682 37.3926 80.5445 -178.556 62.7272 172.258
RightUpLeg  -7.74893 7.12332 -8.05011
RightLeg  58.8745 12.1865 20.369
RightFoot  -5.12165 -1.01085 17.8249
RightToes  1.21801e-010 1.2921e-014 -6.02303e-014
Spine  -3.65385 5.22573 2.51652
Spine1  8.88826 8.50746 -14.7504
HEad  14.3989 29.9101 -14.797
LeftShoulder1  0.59597 1.41988 -25.6923
LeftArm  -4.34977 -4.1639 -50.1917
LeftForeArm  32.9238 7.86365 -12.943
LeftHand  -0.0135069 7.2899 1.48012
RightShoulder  2.49831 7.01406 17.7431
RightArm  -18.7293 20.511 66.2983
RightForeArm  58.5114 -5.51618 4.64393
RightHand  0.451983 -8.21544 -19.1159
LeftUpLeg  -29.6814 -8.18436 -11.0593
LeftLeg  23.7319 12.2465 6.20897
LeftFoot  -5.49797 -0.26119 5.7626
LeftToes  3.79492e-011 -8.60219e-011 1.56273e-011
582
root  65.1957 37.6241 79.5728 -178.213 61.8691 173.745
RightUpLeg  -11.7508 6.06108 -8.83784
RightLeg  61.1432 6.6506 12.4063
RightFoot  -7.97106 -0.396109 11.5781
RightToes  1.21801e-010 1.2921e-014 -6.02303e-014
Spine  -3.31214 4.46582 2.17565
Spine1  8.38332 7.30818 -13.5336
HEad  17.3579 32.2486 -13.6823
LeftShoulder1  0.711706 1.01573 -25.145
LeftArm  -4.26262 -5.60502 -52.3474
LeftForeArm  33.351 7.82842 -12.7567
LeftHand  -0.0167984 7.03168 1.39312
RightShoulder  2.46695 6.34974 19.19
RightArm  -20.7636 16.9309 64.4046
RightForeArm  62.0987 -5.69706 4.11518
RightHand  0.476987 -8.42711 -18.7706
LeftUpLeg  -25.7002 -8.04875 -11.5178
LeftLeg  23.7176 11.7208 6.03995
LeftFoot  -7.57586 -0.185555 7.02516
LeftToes  3.79492e-011 -8.60219e-011 1.56273e-011
583
root  66.5672 37.8833 78.5812 -177.274 60.8427 175.754
RightUpLeg  -15.7997 5.44763 -8.74148
RightLeg  61.3968 2.44393 4.35695
RightFoot  -9.67757 -0.139584 5.0807
RightToes  1.21801e-010 1.2921e-014 -6.02303e-014
Spine  -3.23901 3.64156 1.94108
Spine1  7.80031 6.06758 -12.1744
HEad  19.4643 34.359 -12.3337
LeftShoulder1  0.785875 0.721134 -24.4409
LeftArm  -3.04681 -7.01395 -54.3785
LeftForeArm  32.4321 7.8612 -12.8776
LeftHand  -0.0153641 6.64447 1.72848
RightShoulder  2.46298 5.83222 20.6962
RightArm  -22.9194 12.9959 61.8388
RightForeArm  64.2095 -5.53577 3.59555
RightHand  0.53686 -8.77195 -18.9051
LeftUpLeg  -21.3847 -7.32482 -11.6385
LeftLeg  22.8224 10.4198 5.42682
LeftFoot  -9.6127 -0.0501349 7.15271
LeftToes  3.79492e-011 -8.60219e-011 1.56273e-011
584
root  67.9523 38.0905 77.6109 -176.139 59.3416 177.902
RightUpLeg  -19.5333 5.69168 -8.08506
RightLeg  59.6725 -0.865864 -2.08004
RightFoot  -11.5131 -0.0754547 1.71474
RightToes  1.21801e-010 1.2921e-014 -6.02303e-014
Spine  -2.98838 2.72212 1.57117
Spine1  7.01981 4.73714 -10.7243
HEad  20.7308 35.9544 -11.1198
LeftShoulder1  0.836005 0.492038 -23.7119
LeftArm  -1.89114 -7.89219 -56.0501
LeftForeArm  31.2275 6.76862 -12.7737
LeftHand  -0.0238285 5.67097 2.0034
RightShoulder  2.35883 5.04064 22.0852
RightArm  -25.4884 8.84079 59.1954
RightForeArm  65.9035 -5.32734 2.7183
RightHand  0.570932 -8.94476 -19.0855
LeftUpLeg  -17.0551 -6.23922 -11.5121
LeftLeg  21.7764 8.60777 4.74579
LeftFoot  -11.2371 0.0598347 8.65658
LeftToes  3.79492e-011 -8.60219e-011 1.56273e-011
585
root  69.328 38.207 76.6556 -174.734 57.3249 -179.943
RightUpLeg  -23.1396 6.22879 -7.45927
RightLeg  56.0053 -2.36612 -4.18986
RightFoot  -12.3302 -0.0808453 0.30513
RightToes  1.21801e-010 1.2921e-014 -6.02303e-014
Spine  -2.61289 1.664 1.5048
Spine1  5.86931 3.39096 -9.59305
HEad  21.3839 37.1374 -10.2104
LeftShoulder1  0.885741 0.262011 -23.0678
LeftArm  -0.829936 -8.80305 -57.2509
LeftForeArm  30.6066 2.70898 -12.8907
LeftHand  -0.0324838 4.93049 1.90292
RightShoulder  2.20106 4.1812 23.2795
RightArm  -27.8949 4.06965 56.5758
RightForeArm  66.8796 -5.14984 1.8787
RightHand  0.588351 -9.13816 -18.6725
LeftUpLeg  -13.1247 -4.82609 -10.9054
LeftLeg  20.7255 6.0144 3.76276
LeftFoot  -13.1975 0.23564 9.61159
LeftToes  3.79492e-011 -8.60219e-011 1.56273e-011
586
root  70.6985 38.2433 75.6997 -173.661 54.9026 -178.299
RightUpLeg  -26.2428 7.16977 -7.09712
RightLeg  50.4694 -2.65199 -3.78893
RightFoot  -12.2459 -0.0748815 1.02089
RightToes  1.21801e-010 1.2921e-014 -6.02303e-014
Spine  -2.40067 0.658041 1.22275
Spine1  5.04257 2.1664 -8.42333
HEad  21.5746 37.4964 -9.66864
LeftShoulder1  1.02528 -0.278518 -22.5461
LeftArm  0.264129 -9.9493 -58.292
LeftForeArm  29.7061 -1.36556 -12.7845
LeftHand  -0.0363285 4.55808 1.85048
RightShoulder  1.97622 3.21099 24.2382
RightArm  -30.1048 -1.02248 54.0276
RightForeArm  67.0267 -5.01041 1.08735
RightHand  0.592705 -9.27769 -18.1708
LeftUpLeg  -9.5226 -3.59053 -10.0958
LeftLeg  20.0384 2.9904 2.7581
LeftFoot  -15.1372 0.431462 10.2376
LeftToes  3.79492e-011 -8.60219e-011 1.56273e-011
587
root  72.0741 38.2571 74.7346 -173.013 52.3584 -177.072
RightUpLeg  -28.3549 8.06117 -6.9035
RightLeg  43.0367 -2.73397 -3.01703
RightFoot  -11.2485 -0.0772178 1.23359
RightToes  1.21801e-010 1.2921e-014 -6.02303e-014
Spine  -2.40298 -0.268368 0.855631
Spine1  4.86229 1.08316 -7.1567
HEad  21.1281 37.3942 -9.64318
LeftShoulder1  1.21486 -1.01318 -22.0447
LeftArm  0.992707 -12.0402 -59.3261
LeftForeArm  28.8776 -3.84408 -12.4032
LeftHand  -0.0485882 3.8302 2.20394
RightShoulder  1.74145 2.2783 25.118
RightArm  -31.8503 -5.82164 51.6254
RightForeArm  66.8488 -4.90576 0.433037
RightHand  0.577303 -9.24637 -17.8763
LeftUpLeg  -5.61467 -2.54063 -9.13219
LeftLeg  18.8761 -0.0373791 1.95493
LeftFoot  -16.6049 0.613548 11.1317
LeftToes  3.79492e-011 -8.60219e-011 1.56273e-011
588
root  73.4357 38.2212 73.7628 -172.573 49.8157 -176.516
RightUpLeg  -29.8532 8.6249 -7.11579
RightLeg  33.7808 -3.47145 -2.73525
RightFoot  -10.5031 -0.08462 1.83263
RightToes  1.21801e-010 1.2921e-014 -6.02303e-014
Spine  -3.16192 -1.19502 0.108676
Spine1  5.6604 0.00334185 -5.59671
HEad  20.2036 37.2248 -9.91566
LeftShoulder1  1.32926 -1.48635 -21.6325
LeftArm  2.44988 -14.2652 -60.2727
LeftForeArm  27.3552 -6.32166 -11.9321
LeftHand  -0.0550897 3.63416 2.46919
RightShoulder  1.52672 1.48766 25.7856
RightArm  -33.5266 -10.213 49.6335
RightForeArm  66.7031 -4.7871 -0.292972
RightHand  0.565401 -9.3944 -16.9396
LeftUpLeg  -2.05286 -1.24192 -7.92853
LeftLeg  17.5383 -3.61528 0.752337
LeftFoot  -17.8692 0.770824 11.5839
LeftToes  3.79492e-011 -8.60219e-011 1.56273e-011
